<svg width="48" height="49" viewBox="0 0 48 49" fill="none" xmlns="http://www.w3.org/2000/svg">
<rect y="0.350586" width="48" height="48" rx="24" fill="white" fill-opacity="0.1"/>
<rect x="0.5" y="0.850586" width="47" height="47" rx="23.5" stroke="white" stroke-opacity="0.2"/>
<g clip-path="url(#clip0_184_599)">
<path d="M34.2272 15.8047C34.2263 15.4193 34.0728 15.05 33.8003 14.7775C33.5278 14.505 33.1584 14.3515 32.773 14.3506H15.3848C14.9994 14.3515 14.6301 14.505 14.3576 14.7775C14.0851 15.05 13.9316 15.4193 13.9307 15.8047V28.5769H34.2272V15.8047ZM32.6706 26.7534C32.6706 26.8015 32.6612 26.8491 32.6429 26.8936C32.6245 26.938 32.5975 26.9784 32.5635 27.0123C32.5295 27.0463 32.4892 27.0733 32.4447 27.0917C32.4003 27.11 32.3527 27.1195 32.3046 27.1194H15.8483C15.7515 27.1188 15.6588 27.08 15.5903 27.0115C15.5218 26.943 15.483 26.8503 15.4824 26.7534V16.2731C15.4823 16.2251 15.4917 16.1774 15.5101 16.133C15.5285 16.0886 15.5554 16.0482 15.5894 16.0142C15.6234 15.9802 15.6638 15.9533 15.7082 15.9349C15.7526 15.9165 15.8003 15.9071 15.8483 15.9072H32.3022C32.3504 15.9067 32.3982 15.9159 32.4428 15.9341C32.4874 15.9523 32.5279 15.9793 32.562 16.0133C32.596 16.0474 32.623 16.0879 32.6412 16.1325C32.6594 16.1771 32.6686 16.2249 32.6681 16.2731L32.6706 26.7534Z" fill="white"/>
<path d="M35.9763 31.8972L34.488 29.3062H13.667L12.1787 31.8972C12.0608 32.1031 11.9992 32.3364 12 32.5737C12.0009 32.8109 12.0642 33.0438 12.1836 33.2488C12.3012 33.4551 12.4718 33.6263 12.6776 33.7447C12.8835 33.8631 13.1172 33.9244 13.3547 33.9222H34.8003C35.0378 33.9244 35.2715 33.8631 35.4774 33.7447C35.6833 33.6263 35.8538 33.4551 35.9714 33.2488C36.0908 33.0438 36.1542 32.8109 36.155 32.5737C36.1559 32.3364 36.0942 32.1031 35.9763 31.8972ZM25.5633 32.9195H22.5917C22.4946 32.9195 22.4015 32.8809 22.3329 32.8123C22.2643 32.7436 22.2257 32.6506 22.2257 32.5535C22.2257 32.4564 22.2643 32.3633 22.3329 32.2947C22.4015 32.2261 22.4946 32.1875 22.5917 32.1875H25.5633C25.6604 32.1875 25.7535 32.2261 25.8221 32.2947C25.8907 32.3633 25.9293 32.4564 25.9293 32.5535C25.9293 32.6506 25.8907 32.7436 25.8221 32.8123C25.7535 32.8809 25.6604 32.9195 25.5633 32.9195Z" fill="white"/>
</g>
<defs>
<clipPath id="clip0_184_599">
<rect width="24" height="24" fill="white" transform="translate(12 12.3506)"/>
</clipPath>
</defs>
</svg>
