<svg width="1048" height="95" viewBox="0 0 1048 95" fill="none" xmlns="http://www.w3.org/2000/svg">
<path d="M52.216 94.9702C34.7867 94.9702 21.7147 91.2209 13 83.7222C4.38667 76.1222 0.0800004 64.1649 0.0800004 47.8502C0.0800004 38.4262 1.85333 30.2182 5.4 23.2262C8.94667 16.1329 14.5707 10.6102 22.272 6.65819C29.9733 2.70619 39.9547 0.730193 52.216 0.730193C61.8427 0.730193 69.848 1.23686 76.232 2.25019C82.616 3.26352 86.9227 4.27686 89.152 5.29019V9.85019L92.192 26.5702C90.2667 25.2529 87.3787 23.8849 83.528 22.4662C79.7787 21.0475 75.2693 19.8822 70 18.9702C64.7307 17.9569 58.904 17.4502 52.52 17.4502C45.528 17.4502 39.8533 18.5649 35.496 20.7942C31.24 23.0235 28.0987 26.4182 26.072 30.9782C24.1467 35.4369 23.184 41.0609 23.184 47.8502C23.184 54.6395 24.1467 60.2635 26.072 64.7222C28.0987 69.1809 31.544 72.5249 36.408 74.7542C41.3733 76.9835 48.2133 78.0982 56.928 78.0982C65.6427 78.0982 72.888 76.8822 78.664 74.4502C84.5413 72.0182 88.544 69.6875 90.672 67.4582V72.0182L92.192 87.3702C90.4693 88.9915 86.264 90.6635 79.576 92.3862C72.9893 94.1089 63.8693 94.9702 52.216 94.9702ZM167.819 94.9702C157.686 94.9702 149.731 93.3489 143.955 90.1062C138.28 86.8635 134.278 82.4555 131.947 76.8822C129.718 71.3089 128.603 65.0262 128.603 58.0342C128.603 50.9409 129.768 44.6075 132.099 39.0342C134.531 33.4609 138.584 29.0529 144.259 25.8102C149.934 22.4662 157.787 20.7942 167.819 20.7942C177.851 20.7942 185.704 22.4662 191.379 25.8102C197.054 29.0529 201.056 33.4609 203.387 39.0342C205.819 44.6075 207.035 50.9409 207.035 58.0342C207.035 65.0262 205.87 71.3089 203.539 76.8822C201.31 82.4555 197.358 86.8635 191.683 90.1062C186.008 93.3489 178.054 94.9702 167.819 94.9702ZM167.819 79.6182C172.075 79.6182 175.47 79.0102 178.003 77.7942C180.638 76.4769 182.512 74.2475 183.627 71.1062C184.843 67.9649 185.451 63.6075 185.451 58.0342C185.451 52.4609 184.843 48.1035 183.627 44.9622C182.512 41.7195 180.638 39.4395 178.003 38.1222C175.47 36.7035 172.075 35.9942 167.819 35.9942C163.563 35.9942 160.118 36.7035 157.483 38.1222C154.95 39.5409 153.075 41.8715 151.859 45.1142C150.744 48.3569 150.187 52.7142 150.187 58.1862C150.187 63.5569 150.744 67.8129 151.859 70.9542C153.075 74.0955 154.95 76.3249 157.483 77.6422C160.118 78.9595 163.563 79.6182 167.819 79.6182ZM244.149 93.4502C244.859 93.4502 245.517 92.7409 246.125 91.3222C246.835 89.9035 247.189 87.5729 247.189 84.3302V32.9542C247.189 29.7115 246.835 27.4315 246.125 26.1142C245.517 24.6955 244.859 23.9355 244.149 23.8342C248.608 23.8342 253.168 23.5302 257.829 22.9222C262.491 22.2129 266.139 21.5035 268.773 20.7942V30.0662L268.469 32.0422L268.773 32.3462C269.077 31.6369 270.04 30.3702 271.661 28.5462C273.283 26.7222 275.613 24.9995 278.653 23.3782C281.693 21.6555 285.443 20.7942 289.901 20.7942C299.325 20.7942 306.52 23.4795 311.485 28.8502C316.552 34.2209 319.085 42.6315 319.085 54.0822V84.3302C319.085 87.5729 319.389 89.9035 319.997 91.3222C320.707 92.7409 321.416 93.4502 322.125 93.4502H294.461C295.171 93.4502 295.829 92.7409 296.437 91.3222C297.147 89.9035 297.501 87.5729 297.501 84.3302V54.5382C297.501 49.7755 296.995 46.0769 295.981 43.4422C294.968 40.7062 293.549 38.7809 291.725 37.6662C290.003 36.5515 287.976 35.9942 285.645 35.9942C282.808 35.9942 280.072 36.7035 277.437 38.1222C274.904 39.4395 272.827 41.5675 271.205 44.5062C269.584 47.3435 268.773 51.1435 268.773 55.9062V84.3302C268.773 87.5729 269.077 89.9035 269.685 91.3222C270.395 92.7409 271.104 93.4502 271.813 93.4502H244.149ZM390.332 94.9702C383.34 94.9702 378.273 93.5009 375.132 90.5622C371.99 87.5222 370.42 82.6075 370.42 75.8182V37.5142H356.74V22.3142C361.401 22.3142 365.049 21.7569 367.684 20.6422C370.318 19.4262 372.193 17.3489 373.308 14.4102C374.422 11.4715 374.98 7.36753 374.98 2.09819H392.004V22.3142H417.996C417.286 24.3409 416.577 26.8742 415.868 29.9142C415.26 32.8529 414.956 35.3862 414.956 37.5142H392.004V67.4582C392.004 72.1195 392.358 75.3115 393.068 77.0342C393.777 78.7569 395.449 79.6182 398.084 79.6182C399.806 79.6182 401.681 79.0102 403.708 77.7942C405.836 76.5782 407.862 75.1089 409.788 73.3862C411.814 71.5622 413.486 69.8395 414.804 68.2182V72.9302L416.324 87.6742C415.108 88.6875 413.284 89.8022 410.852 91.0182C408.42 92.1329 405.43 93.0449 401.884 93.7542C398.438 94.5649 394.588 94.9702 390.332 94.9702ZM481.321 94.9702C472.201 94.9702 464.905 93.1969 459.433 89.6502C454.063 86.0022 451.377 80.1755 451.377 72.1702C451.377 66.5969 452.796 62.0875 455.633 58.6422C458.471 55.1969 462.321 52.6635 467.185 51.0422C472.151 49.3195 477.775 48.4582 484.057 48.4582C488.719 48.4582 492.671 48.8635 495.913 49.6742C499.257 50.4849 501.943 51.3462 503.969 52.2582C505.996 53.1702 507.313 53.8289 507.921 54.2342C507.921 49.9782 507.465 46.5329 506.553 43.8982C505.641 41.1622 503.969 39.1862 501.537 37.9702C499.207 36.6529 495.913 35.9942 491.657 35.9942C485.476 35.9942 480.004 36.6022 475.241 37.8182C470.479 39.0342 466.577 40.4529 463.537 42.0742C460.599 43.6955 458.572 45.0635 457.457 46.1782V41.6182L455.937 26.7222C456.647 26.3169 458.521 25.6582 461.561 24.7462C464.601 23.8342 468.756 22.9729 474.025 22.1622C479.295 21.2502 485.577 20.7942 492.873 20.7942C502.905 20.7942 510.556 22.2635 515.825 25.2022C521.095 28.0395 524.692 32.1435 526.617 37.5142C528.644 42.8849 529.657 49.3702 529.657 56.9702V84.3302C529.657 87.1675 529.961 89.2449 530.569 90.5622C531.279 91.7782 531.988 92.7409 532.697 93.4502H508.073V90.2582L508.377 87.3702L508.073 87.0662C507.263 87.9782 506.097 88.8902 504.577 89.8022C503.057 90.7142 501.183 91.5755 498.953 92.3862C496.724 93.0955 494.14 93.7035 491.201 94.2102C488.263 94.7169 484.969 94.9702 481.321 94.9702ZM488.465 79.6182C492.721 79.6182 496.268 79.3142 499.105 78.7062C502.044 77.9969 504.273 77.0849 505.793 75.9702C507.313 74.7542 508.073 73.3355 508.073 71.7142C508.073 69.3835 506.3 67.4582 502.753 65.9382C499.308 64.4182 494.596 63.6582 488.617 63.6582C482.841 63.6582 478.737 64.4689 476.305 66.0902C473.975 67.7115 472.809 69.7382 472.809 72.1702C472.809 75.2102 474.177 77.2369 476.913 78.2502C479.649 79.1622 483.5 79.6182 488.465 79.6182ZM610.108 94.9702C599.57 94.9702 591.26 93.3489 585.18 90.1062C579.202 86.8635 574.996 82.4555 572.564 76.8822C570.132 71.3089 568.916 65.0262 568.916 58.0342C568.916 45.6715 572.26 36.3995 578.948 30.2182C585.738 24.0369 595.618 20.9462 608.588 20.9462C615.378 20.9462 621.559 21.4529 627.132 22.4662C632.807 23.4795 636.962 24.4422 639.596 25.3542V29.9142L642.636 46.1782C640.407 44.0502 636.354 41.8715 630.476 39.6422C624.7 37.3115 617.759 36.1462 609.652 36.1462C605.295 36.1462 601.647 36.9569 598.708 38.5782C595.871 40.0982 593.743 42.4795 592.324 45.7222C591.007 48.9649 590.348 53.1195 590.348 58.1862C590.348 63.1515 591.108 67.2049 592.628 70.3462C594.148 73.4875 596.631 75.7675 600.076 77.1862C603.522 78.6049 608.082 79.3142 613.756 79.3142C620.951 79.3142 626.879 78.4022 631.54 76.5782C636.303 74.6529 639.495 72.7782 641.116 70.9542V75.5142L642.636 87.6742C640.711 89.2955 636.911 90.9169 631.236 92.5382C625.663 94.1595 618.62 94.9702 610.108 94.9702ZM711.141 94.9702C704.149 94.9702 699.082 93.5009 695.941 90.5622C692.799 87.5222 691.229 82.6075 691.229 75.8182V37.5142H677.549V22.3142C682.21 22.3142 685.858 21.7569 688.493 20.6422C691.127 19.4262 693.002 17.3489 694.117 14.4102C695.231 11.4715 695.789 7.36753 695.789 2.09819H712.813V22.3142H738.805C738.095 24.3409 737.386 26.8742 736.677 29.9142C736.069 32.8529 735.765 35.3862 735.765 37.5142H712.813V67.4582C712.813 72.1195 713.167 75.3115 713.877 77.0342C714.586 78.7569 716.258 79.6182 718.893 79.6182C720.615 79.6182 722.49 79.0102 724.517 77.7942C726.645 76.5782 728.671 75.1089 730.597 73.3862C732.623 71.5622 734.295 69.8395 735.613 68.2182V72.9302L737.133 87.6742C735.917 88.6875 734.093 89.8022 731.661 91.0182C729.229 92.1329 726.239 93.0449 722.693 93.7542C719.247 94.5649 715.397 94.9702 711.141 94.9702ZM883.638 94.9702C873.403 94.9702 864.993 93.3489 858.406 90.1062C851.819 86.8635 846.955 82.2022 843.814 76.1222C840.673 69.9409 839.102 62.5942 839.102 54.0822V11.2182C839.102 7.97553 838.747 5.69553 838.038 4.37819C837.43 2.95952 836.771 2.25019 836.062 2.25019H865.246C864.537 2.35152 863.827 3.06086 863.118 4.37819C862.51 5.69553 862.206 7.97553 862.206 11.2182V53.7782C862.206 60.2635 863.118 65.2795 864.942 68.8262C866.766 72.3729 869.299 74.8049 872.542 76.1222C875.785 77.4395 879.534 78.0982 883.79 78.0982H885.462C888.806 78.0982 891.745 77.7435 894.278 77.0342C896.913 76.3249 899.091 75.1089 900.814 73.3862C902.638 71.6635 904.006 69.2315 904.918 66.0902C905.931 62.8475 906.438 58.7435 906.438 53.7782V11.2182C906.438 7.97553 906.083 5.69553 905.374 4.37819C904.766 2.95952 904.107 2.25019 903.398 2.25019H932.582C931.873 2.35152 931.163 3.11152 930.454 4.53019C929.846 5.84752 929.542 8.12752 929.542 11.3702V54.0822C929.542 62.5942 927.921 69.9409 924.678 76.1222C921.537 82.2022 916.673 86.8635 910.086 90.1062C903.601 93.3489 895.291 94.9702 885.158 94.9702H883.638ZM1010.92 94.9702C1001.9 94.9702 994.297 94.4635 988.116 93.4502C981.934 92.4369 977.678 91.4235 975.348 90.4102V85.8502L972.156 70.9542C974.79 72.8795 979.705 74.8049 986.9 76.7302C994.094 78.6555 1002.91 79.6182 1013.35 79.6182C1016.49 79.6182 1018.97 79.4155 1020.8 79.0102C1022.72 78.6049 1024.09 77.9462 1024.9 77.0342C1025.71 76.1222 1026.12 74.9569 1026.12 73.5382C1026.12 71.8155 1025.46 70.4982 1024.14 69.5862C1022.92 68.6742 1020.69 67.9649 1017.45 67.4582C1014.21 66.8502 1009.5 66.1409 1003.32 65.3302C995.513 64.3169 989.332 62.8982 984.772 61.0742C980.212 59.1489 976.969 56.7169 975.044 53.7782C973.22 50.7382 972.308 47.0395 972.308 42.6822C972.308 38.6289 973.27 34.9809 975.196 31.7382C977.222 28.3942 980.668 25.7595 985.532 23.8342C990.497 21.8075 997.388 20.7942 1006.2 20.7942C1014.51 20.7942 1021.81 21.3009 1028.09 22.3142C1034.37 23.3275 1038.88 24.3409 1041.62 25.3542V29.9142L1044.66 43.2902C1042.33 41.7702 1037.77 40.1995 1030.98 38.5782C1024.19 36.9569 1015.58 36.1462 1005.14 36.1462C1001.09 36.1462 998.198 36.5515 996.476 37.3622C994.753 38.1729 993.892 39.5915 993.892 41.6182C993.892 42.6315 994.145 43.4929 994.652 44.2022C995.26 44.9115 996.374 45.5702 997.996 46.1782C999.617 46.7862 1001.95 47.3942 1004.99 48.0022C1008.03 48.5089 1012.03 49.0662 1017 49.6742C1025.61 50.7889 1032.09 52.3595 1036.45 54.3862C1040.81 56.3115 1043.75 58.7435 1045.27 61.6822C1046.79 64.5195 1047.55 67.9649 1047.55 72.0182C1047.55 77.1862 1046.23 81.4929 1043.6 84.9382C1041.06 88.2822 1037.06 90.8155 1031.59 92.5382C1026.22 94.1595 1019.33 94.9702 1010.92 94.9702Z" fill="url(#paint0_linear_429_164)" fill-opacity="0.05"/>
<defs>
<linearGradient id="paint0_linear_429_164" x1="523.568" y1="19.4691" x2="523.568" y2="93.7313" gradientUnits="userSpaceOnUse">
<stop stop-color="white"/>
<stop offset="1" stop-color="#111522"/>
</linearGradient>
</defs>
</svg>
