<svg width="36" height="36" viewBox="0 0 36 36" fill="none" xmlns="http://www.w3.org/2000/svg">
<path d="M18 0.5C8.3575 0.5 0.5 8.3575 0.5 18C0.5 27.6425 8.3575 35.5 18 35.5C27.6425 35.5 35.5 27.6425 35.5 18C35.5 8.3575 27.6425 0.5 18 0.5ZM22.8825 18.9275L16.705 25.105C16.4425 25.3675 16.11 25.49 15.7775 25.49C15.445 25.49 15.1125 25.3675 14.85 25.105C14.3425 24.5975 14.3425 23.7575 14.85 23.25L20.1 18L14.85 12.75C14.3425 12.2425 14.3425 11.4025 14.85 10.895C15.3575 10.3875 16.1975 10.3875 16.705 10.895L22.8825 17.0725C23.4075 17.58 23.4075 18.42 22.8825 18.9275Z" fill="white"/>
</svg>
