<svg width="20" height="21" viewBox="0 0 20 21" fill="none" xmlns="http://www.w3.org/2000/svg">
<path d="M14.1665 18.2702H5.83317C2.7915 18.2702 1.0415 16.5202 1.0415 13.4785V7.64518C1.0415 4.60352 2.7915 2.85352 5.83317 2.85352H14.1665C17.2082 2.85352 18.9582 4.60352 18.9582 7.64518V13.4785C18.9582 16.5202 17.2082 18.2702 14.1665 18.2702ZM5.83317 4.10352C3.44984 4.10352 2.2915 5.26185 2.2915 7.64518V13.4785C2.2915 15.8618 3.44984 17.0202 5.83317 17.0202H14.1665C16.5498 17.0202 17.7082 15.8618 17.7082 13.4785V7.64518C17.7082 5.26185 16.5498 4.10352 14.1665 4.10352H5.83317Z" fill="white"/>
<path d="M9.99998 11.2865C9.29998 11.2865 8.59165 11.0698 8.04998 10.6282L5.44164 8.54483C5.17498 8.32817 5.12498 7.9365 5.34165 7.66983C5.55831 7.40316 5.94998 7.35317 6.21665 7.56983L8.82497 9.65317C9.45831 10.1615 10.5333 10.1615 11.1666 9.65317L13.775 7.56983C14.0416 7.35317 14.4416 7.39483 14.65 7.66983C14.8666 7.9365 14.825 8.3365 14.55 8.54483L11.9416 10.6282C11.4083 11.0698 10.7 11.2865 9.99998 11.2865Z" fill="white"/>
</svg>
