<svg width="35" height="36" viewBox="0 0 35 36" fill="none" xmlns="http://www.w3.org/2000/svg">
<path d="M35 17.5615C35 7.91902 27.1425 0.0615231 17.5 0.0615227C7.8575 0.0615223 -3.43462e-07 7.91902 -7.64949e-07 17.5615C-1.18644e-06 27.204 7.8575 35.0615 17.5 35.0615C27.1425 35.0615 35 27.204 35 17.5615ZM16.5725 22.444L10.395 16.2665C10.1325 16.004 10.01 15.6715 10.01 15.339C10.01 15.0065 10.1325 14.674 10.395 14.4115C10.9025 13.904 11.7425 13.904 12.25 14.4115L17.5 19.6615L22.75 14.4115C23.2575 13.904 24.0975 13.904 24.605 14.4115C25.1125 14.919 25.1125 15.759 24.605 16.2665L18.4275 22.444C17.92 22.969 17.08 22.969 16.5725 22.444Z" fill="white"/>
</svg>
