<svg width="43" height="43" viewBox="0 0 43 43" fill="none" xmlns="http://www.w3.org/2000/svg">
<path d="M39 21.5615C39 11.919 31.1425 4.06152 21.5 4.06152C11.8575 4.06152 4 11.919 4 21.5615C4 31.204 11.8575 39.0615 21.5 39.0615C31.1425 39.0615 39 31.204 39 21.5615ZM20.5725 26.444L14.395 20.2665C14.1325 20.004 14.01 19.6715 14.01 19.339C14.01 19.0065 14.1325 18.674 14.395 18.4115C14.9025 17.904 15.7425 17.904 16.25 18.4115L21.5 23.6615L26.75 18.4115C27.2575 17.904 28.0975 17.904 28.605 18.4115C29.1125 18.919 29.1125 19.759 28.605 20.2665L22.4275 26.444C21.92 26.969 21.08 26.969 20.5725 26.444Z" fill="white"/>
</svg>
